<svg width="24" height="26" viewBox="0 0 24 26" fill="none" xmlns="http://www.w3.org/2000/svg">
<path d="M23.0208 11.6458C22.5723 11.6458 22.2083 11.2818 22.2083 10.8333C22.2083 7.72192 20.9972 4.79803 18.798 2.59778C18.4806 2.2804 18.4806 1.76584 18.798 1.44846C19.1154 1.13107 19.6299 1.13107 19.9475 1.44846C22.4532 3.95519 23.8333 7.2887 23.8333 10.8333C23.8333 11.2818 23.4693 11.6458 23.0208 11.6458Z" fill="black"/>
<path d="M0.8125 11.6458C0.363998 11.6458 0 11.2818 0 10.8333C0 7.28868 1.38022 3.95517 3.88695 1.44943C4.20433 1.13205 4.71909 1.13205 5.03647 1.44943C5.35385 1.76682 5.35385 2.28157 5.03647 2.59895C2.83621 4.79802 1.625 7.72191 1.625 10.8333C1.625 11.2818 1.261 11.6458 0.8125 11.6458Z" fill="black"/>
<path d="M11.9166 26C9.6763 26 7.85413 24.1778 7.85413 21.9375C7.85413 21.489 8.21812 21.125 8.66663 21.125C9.11513 21.125 9.47913 21.489 9.47913 21.9375C9.47913 23.282 10.5721 24.375 11.9166 24.375C13.2609 24.375 14.3541 23.282 14.3541 21.9375C14.3541 21.489 14.7181 21.125 15.1666 21.125C15.6151 21.125 15.9791 21.489 15.9791 21.9375C15.9791 24.1778 14.157 26 11.9166 26Z" fill="black"/>
<path d="M20.8542 22.75H2.97916C1.93358 22.75 1.08319 21.8996 1.08319 20.8542C1.08319 20.2994 1.3248 19.7741 1.74632 19.4133C3.39394 18.0212 4.33319 15.9977 4.33319 13.8538V10.8333C4.33319 6.65175 7.73494 3.25 11.9167 3.25C16.0982 3.25 19.4999 6.65175 19.4999 10.8333V13.8538C19.4999 15.9977 20.4392 18.0212 22.0761 19.4058C22.5083 19.7741 22.7499 20.2994 22.7499 20.8542C22.7499 21.8996 21.8995 22.75 20.8542 22.75ZM11.9167 4.875C8.63075 4.875 5.95819 7.54756 5.95819 10.8333V13.8538C5.95819 16.4763 4.80887 18.9529 2.80579 20.6461C2.7679 20.6787 2.70819 20.7459 2.70819 20.8542C2.70819 21.0014 2.83177 21.125 2.97916 21.125H20.8542C21.0013 21.125 21.1249 21.0014 21.1249 20.8542C21.1249 20.7459 21.0654 20.6787 21.0295 20.6483C19.0242 18.9529 17.8749 16.4763 17.8749 13.8538V10.8333C17.8749 7.54756 15.2024 4.875 11.9167 4.875Z" fill="black"/>
<path d="M11.9166 4.875C11.4681 4.875 11.1041 4.511 11.1041 4.0625V0.8125C11.1041 0.363998 11.4681 0 11.9166 0C12.3651 0 12.7291 0.363998 12.7291 0.8125V4.0625C12.7291 4.511 12.3651 4.875 11.9166 4.875Z" fill="black"/>
</svg>
