<svg width="183" height="199" viewBox="0 0 183 199" fill="none" xmlns="http://www.w3.org/2000/svg">
<g clip-path="url(#clip0)" filter="url(#filter0_dd)">
<path d="M97.6877 20.0594C103.796 36.3923 123.787 33.9344 137.352 30.4458C140.605 29.5737 143.937 28.6222 146.872 26.9572C149.807 25.2922 152.266 22.5965 153.218 19.3458C154.249 15.6986 153.059 11.655 150.997 8.4836C149.093 5.55002 146.316 2.45786 143.381 0.554999C142.112 3.80573 137.59 4.04358 134.496 4.04358C130.133 4.04358 126.167 2.37858 122.121 1.18929C117.996 -3.39746e-06 113.553 -0.237861 109.428 0.872143C101.099 2.85429 94.4352 11.3379 97.6877 20.0594Z" fill="black"/>
<path d="M110.142 129.395C109.904 129.395 109.825 129.395 109.666 129.474L110.142 129.395Z" fill="black"/>
<path d="M110.142 129.395C109.904 129.395 109.825 129.395 109.666 129.474L110.142 129.395Z" fill="black"/>
<path d="M92.5313 49.8709V34.5687C92.5313 21.5658 104.669 10.9415 119.503 10.9415C126.881 10.9415 133.624 13.5579 138.542 17.8393C143.461 22.1208 146.475 27.988 146.475 34.4894V49.7916" stroke="black" stroke-width="2" stroke-miterlimit="10"/>
<path d="M146.475 66.4417V84.1225C146.475 97.1254 134.338 107.75 119.503 107.75C104.669 107.75 92.5313 97.1254 92.5313 84.1225V66.4417" stroke="black" stroke-width="2" stroke-miterlimit="10"/>
<path d="M103.479 71.9124C111.058 71.9124 117.203 65.7714 117.203 58.1959C117.203 50.6205 111.058 44.4795 103.479 44.4795C95.8992 44.4795 89.7548 50.6205 89.7548 58.1959C89.7548 65.7714 95.8992 71.9124 103.479 71.9124Z" stroke="black" stroke-width="2" stroke-miterlimit="10"/>
<path d="M135.448 71.9124C143.028 71.9124 149.172 65.7714 149.172 58.1959C149.172 50.6205 143.028 44.4795 135.448 44.4795C127.869 44.4795 121.724 50.6205 121.724 58.1959C121.724 65.7714 127.869 71.9124 135.448 71.9124Z" stroke="black" stroke-width="2" stroke-miterlimit="10"/>
<path d="M117.123 57.7995H121.883" stroke="black" stroke-width="4" stroke-miterlimit="10"/>
<path d="M130.53 105.609H130.609V130.425" stroke="black" stroke-width="2" stroke-miterlimit="10"/>
<path d="M110.777 130.108V106.243" stroke="black" stroke-width="2" stroke-miterlimit="10"/>
<path d="M103.479 61.3674C105.231 61.3674 106.652 59.9475 106.652 58.1959C106.652 56.4444 105.231 55.0245 103.479 55.0245C101.726 55.0245 100.306 56.4444 100.306 58.1959C100.306 59.9475 101.726 61.3674 103.479 61.3674Z" fill="black"/>
<path d="M135.448 61.3674C137.201 61.3674 138.621 59.9475 138.621 58.1959C138.621 56.4444 137.201 55.0245 135.448 55.0245C133.696 55.0245 132.275 56.4444 132.275 58.1959C132.275 59.9475 133.696 61.3674 135.448 61.3674Z" fill="black"/>
<path d="M90.7067 63.3495H89.1201C87.3749 63.3495 85.7883 64.0631 84.5984 65.1731C83.4878 66.3624 82.7738 67.9481 82.7738 69.6924C82.7738 73.181 85.6296 76.0353 89.1201 76.0353H92.2933" stroke="black" stroke-width="2" stroke-miterlimit="10"/>
<path d="M148.22 63.3495H149.807C153.297 63.3495 156.153 66.2038 156.153 69.6924C156.153 71.4367 155.439 73.0224 154.249 74.2117C153.139 75.3217 151.552 76.0353 149.807 76.0353H146.634" stroke="black" stroke-width="2" stroke-miterlimit="10"/>
<path d="M92.3726 67.7896V71.5953H89.8341C88.8028 71.5953 87.9302 70.7231 87.9302 69.6924C87.9302 69.1374 88.1682 68.6617 88.4855 68.3446C88.8028 68.0274 89.2788 67.7896 89.8341 67.7896H92.3726Z" fill="black"/>
<path d="M146.634 71.5953V67.7896H149.172C150.204 67.7896 151.076 68.6617 151.076 69.6924C151.076 70.2474 150.838 70.7231 150.521 71.0403C150.204 71.3574 149.728 71.5953 149.172 71.5953H146.634Z" fill="black"/>
<path d="M119.503 71.2781C119.503 71.2781 115.537 77.621 121.883 76.0353" stroke="black" stroke-width="2" stroke-miterlimit="10" stroke-linecap="round"/>
<path d="M112.364 89.5932C112.364 89.5932 118.71 97.4425 127.436 89.5932" stroke="black" stroke-width="2" stroke-miterlimit="10" stroke-linecap="round"/>
<path d="M97.291 41.9423C97.291 41.9423 101.654 37.5816 109.19 41.1495" stroke="black" stroke-width="3" stroke-miterlimit="10" stroke-linecap="round"/>
<path d="M141.715 41.9423C141.715 41.9423 137.352 37.5816 129.816 41.1495" stroke="black" stroke-width="3" stroke-miterlimit="10" stroke-linecap="round"/>
<path d="M92.3726 32.9037C92.3726 32.9037 81.4252 24.4201 86.1849 14.1129C90.9447 3.80572 106.017 9.35574 106.017 9.35574C106.017 9.35574 112.046 35.0444 92.3726 32.9037Z" fill="black"/>
<path d="M37.9529 96.2539C37.0009 93.1617 35.6523 91.6553 34.9383 87.136C33.4311 78.0974 33.9864 69.4552 30.2579 69.7723C28.7507 69.9309 28.2747 71.5166 28.354 72.3888L29.544 86.6603C29.068 88.3253 28.1954 87.691 28.1954 87.691C28.1954 87.691 25.1015 75.0052 24.7049 72.7059C24.3082 70.4859 23.1976 69.2173 21.6904 69.3759C19.0725 69.6138 20.1038 72.7852 20.3418 73.9745L23.1183 89.356C23.3563 90.8624 21.7697 90.3867 21.7697 90.3867L15.582 75.0052C14.8681 73.3402 13.5195 73.7366 13.5195 73.7366C11.0603 74.2916 12.0122 76.5116 12.0122 76.5116L17.3273 92.8446C17.3273 92.9239 17.3273 93.0031 17.3273 93.0824C17.4066 93.9546 16.296 94.4303 15.82 93.6374C14.1541 91.1003 10.9016 87.0567 8.20444 85.471C6.85585 84.6781 5.9039 84.8367 5.34859 85.2331C4.79329 85.6295 4.71396 86.3431 5.1106 86.8981L15.0267 101.249C17.3273 116.472 26.6088 118.295 26.6088 118.295L32.1618 140.02L40.3327 174.271L41.364 178.632C42.316 182.834 46.1237 185.847 50.4075 185.847H54.7706C57.8645 185.847 60.0063 182.834 59.0544 179.98L39.3014 119.881L38.4288 114.648C40.3327 112.508 41.602 107.988 42.2366 104.737C42.6333 102.993 42.7919 101.17 42.6333 99.4253C42.316 95.0646 45.2511 87.2153 45.2511 87.2153C45.0131 85.7088 42.1573 86.9774 42.1573 86.9774C38.9841 88.0874 38.1908 93.1617 37.9529 95.9367C37.8735 97.126 37.3182 98.1567 36.5249 98.9496C31.7652 103.627 31.3685 108.86 31.3685 108.86" stroke="black" stroke-width="2" stroke-miterlimit="10"/>
<path d="M24.6256 72.7846C24.2289 70.5646 23.515 68.8996 21.6111 69.4546C19.0725 70.1681 20.0245 72.8638 20.2625 74.0531" stroke="black" stroke-width="2" stroke-miterlimit="10"/>
<path d="M179 190.207V191H161.706L158.057 170.782V191H83.1704V179.504C83.1704 176.729 83.1704 173.954 83.2498 171.179C81.5839 172.526 79.7593 173.636 77.6174 174.826L61.0376 185.926C60.9583 186.005 60.879 186.005 60.7996 186.084C60.0857 186.481 59.2924 186.719 58.4198 186.719L54.9719 186.849C54.9719 186.849 58.6578 185.45 59.5304 181.961L53.5807 162.14C62.0689 155.083 75.7928 134.707 102.13 130.505C103.241 130.267 104.431 130.029 105.7 129.87C106.89 129.712 108.08 129.553 109.428 129.474L110.301 129.395V129.553L109.825 129.633C109.984 129.633 110.063 129.633 110.222 129.553H110.301C110.46 129.553 110.618 129.553 110.777 129.474H110.856L111.65 129.395V132.408C111.65 132.804 111.808 133.28 112.205 133.676C113.395 135.024 116.092 136.055 119.345 136.293C119.9 136.372 120.455 136.372 121.01 136.372C121.09 136.372 121.169 136.372 121.169 136.372H121.248C124.422 136.293 127.357 135.421 128.864 134.152C129.34 133.756 129.816 133.201 129.816 132.408V129.633L130.609 129.791H130.768C131.006 129.791 131.165 129.87 131.403 129.87V129.633L132.434 129.791C161.548 133.359 179 155.956 179 190.207Z" fill="black"/>
<path d="M60.9583 185.846L60.7203 186.005C60.7996 186.005 60.879 185.926 60.9583 185.846Z" fill="black"/>
</g>
<defs>
<filter id="filter0_dd" x="0" y="0" width="183" height="199" filterUnits="userSpaceOnUse" color-interpolation-filters="sRGB">
<feFlood flood-opacity="0" result="BackgroundImageFix"/>
<feColorMatrix in="SourceAlpha" type="matrix" values="0 0 0 0 0 0 0 0 0 0 0 0 0 0 0 0 0 0 127 0"/>
<feOffset dy="4"/>
<feGaussianBlur stdDeviation="2"/>
<feColorMatrix type="matrix" values="0 0 0 0 0 0 0 0 0 0 0 0 0 0 0 0 0 0 0.25 0"/>
<feBlend mode="normal" in2="BackgroundImageFix" result="effect1_dropShadow"/>
<feColorMatrix in="SourceAlpha" type="matrix" values="0 0 0 0 0 0 0 0 0 0 0 0 0 0 0 0 0 0 127 0"/>
<feOffset dy="4"/>
<feGaussianBlur stdDeviation="2"/>
<feColorMatrix type="matrix" values="0 0 0 0 0 0 0 0 0 0 0 0 0 0 0 0 0 0 0.25 0"/>
<feBlend mode="normal" in2="effect1_dropShadow" result="effect2_dropShadow"/>
<feBlend mode="normal" in="SourceGraphic" in2="effect2_dropShadow" result="shape"/>
</filter>
<clipPath id="clip0">
<rect width="175" height="191" fill="white" transform="translate(4)"/>
</clipPath>
</defs>
</svg>
